<svg width="63" height="16" viewBox="0 0 63 16" fill="none" xmlns="http://www.w3.org/2000/svg">
<g clip-path="url(#clip0)">
<path fill-rule="evenodd" clip-rule="evenodd" d="M18.0008 1.88506H19.3496V0.679349H18.0008V1.88506ZM18.0008 4.08394H19.3496V2.87823H18.0008V4.08394ZM18.0008 6.28083H19.3496V5.07711H18.0008V6.28083ZM18.0008 8.47971H19.3496V7.274H18.0008V8.47971ZM18.0008 10.6786H19.3496V9.47288H18.0008V10.6786ZM18.0008 12.8775H19.3496V11.6718H18.0008V12.8775ZM18.0008 15.0744H19.3496V13.8706H18.0008V15.0744ZM9.13506 0.109818C9.0715 0.0694475 9.01537 0.0337883 9.2051 0.0337883H19.9041V16H12.0274C11.0847 14.9929 12.3225 13.96 12.5404 13.8011C12.4991 13.6136 12.3548 13.5565 12.1954 13.4933C11.8887 13.3717 11.5257 13.2279 11.7303 12.0909C11.795 11.727 11.678 11.5326 11.5796 11.369C11.461 11.1718 11.3693 11.0193 11.6551 10.6687C11.7203 10.5887 11.706 10.5747 11.682 10.5512C11.6732 10.5426 11.663 10.5326 11.6551 10.5177C11.3957 10.0432 11.4108 9.95018 11.4473 9.72583C11.4646 9.61959 11.4867 9.48391 11.4867 9.26432L10.9737 8.80348L9.2051 16H7.074L6.2382 15.0704V14.9194L6.06787 14.7625C5.9804 14.2325 5.86537 13.7073 5.72325 13.1893C5.36118 12.5188 5.27466 11.7033 5.18882 10.8942C5.06335 9.71171 4.93933 8.54285 3.95856 7.85997L3.79219 8.01689V15.6921L3.43767 15.8431V16H2.38401C2.34912 15.9656 2.32143 15.9307 2.29425 15.8964C2.23349 15.8198 2.17534 15.7464 2.04533 15.6901C1.97059 15.6578 1.93741 15.6652 1.91216 15.6709C1.87384 15.6795 1.85376 15.684 1.73438 15.5392C1.36623 15.1128 1.38299 14.2287 1.39667 13.5066C1.40772 12.9235 1.41676 12.446 1.21943 12.4007C0.418174 12.215 0.589952 12.0405 0.830898 11.7959C1.11287 11.5096 1.48957 11.1271 0.512369 10.5177C0.291903 10.3789 0.394691 10.3034 0.545251 10.1928C0.754475 10.0391 1.05595 9.81761 0.710426 9.26432C0.0390119 8.17779 0.395515 5.12279 1.22537 4.57655C1.32039 4.51456 1.27983 4.52036 1.1775 4.53498C0.883095 4.57705 0.0773879 4.69219 0.51831 3.47612C0.535142 3.42811 0.470817 3.2763 0.383205 3.06953C0.140914 2.49771 -0.279474 1.50557 0.346001 1.12628C0.973466 0.745329 0.913162 0.732472 0.733847 0.694243C0.596201 0.664897 0.388429 0.6206 0.367787 0.383384C0.364756 0.349949 0.28084 0.309256 0.193938 0.267116C-0.00310462 0.171567 -0.2155 0.0685739 0.464835 0.0258429C1.10472 -0.0143473 2.28712 0.000464319 3.53954 0.0161531C4.20599 0.0245016 4.89226 0.0330984 5.52717 0.0337883L7.46616 7.55805H7.64045C7.8131 7.05569 7.87586 6.58343 7.93291 6.15421C7.98841 5.73656 8.03851 5.35965 8.17916 5.0354C8.48583 4.33032 8.5826 3.43828 8.6764 2.57368C8.77524 1.66262 8.87077 0.782028 9.2051 0.182764C9.21644 0.16152 9.17433 0.134769 9.13506 0.109818ZM21.9837 2.47358e-10V4.17132H62.3596V2.47358e-10H21.9837ZM26.2004 3.0252C25.9549 3.1696 25.6725 3.23865 25.3883 3.22383C25.0477 3.24923 24.7096 3.14892 24.4377 2.94177C24.3271 2.83684 24.241 2.70872 24.1856 2.56657C24.1301 2.42441 24.1066 2.27173 24.1168 2.11943C24.1035 1.95338 24.128 1.78648 24.1884 1.6313C24.2487 1.47612 24.3435 1.33671 24.4654 1.22359C24.7177 1.0266 25.0312 0.925296 25.3507 0.937553C25.652 0.917855 25.9515 0.996608 26.2043 1.16201C26.297 1.22792 26.3736 1.31395 26.4284 1.41369C26.4833 1.51343 26.515 1.6243 26.5212 1.73805H25.927C25.9202 1.68106 25.9016 1.62614 25.8722 1.57686C25.8429 1.52758 25.8035 1.48504 25.7567 1.45202C25.6452 1.38484 25.5163 1.35235 25.3863 1.35866C25.3025 1.3554 25.2189 1.37001 25.141 1.4015C25.0632 1.433 24.9929 1.48068 24.9348 1.5414C24.8108 1.70198 24.7508 1.90305 24.7664 2.10552C24.7558 2.2909 24.8144 2.47361 24.9308 2.618C24.9899 2.68448 25.0631 2.73683 25.145 2.7712C25.2269 2.80558 25.3155 2.8211 25.4042 2.81663C25.5392 2.82381 25.6727 2.78457 25.7825 2.7054C25.8725 2.62882 25.9305 2.52102 25.9449 2.40347H26.5529C26.5419 2.52794 26.5033 2.64837 26.4399 2.75594C26.3765 2.86351 26.2899 2.95551 26.1865 3.0252H26.2004ZM31.7856 3.16821H31.1736V0.993171H31.7856V3.16821ZM38.8562 3.16821H38.2343L37.2123 1.81154V3.17815H36.6003V0.993171H37.2203L38.2422 2.3419H38.2541V0.993171H38.8641L38.8562 3.16821ZM45.7506 3.17815H43.669V0.993171H45.7189V1.42222H44.281V1.8612H45.5525V2.25847H44.285V2.74512H45.7506V3.17815ZM53.3124 3.17815H52.7024V1.61887H52.6905L52.0468 3.17815H51.6329L50.9833 1.6288H50.9733V3.17815H50.3614V0.993171H51.2209L51.8408 2.48491L52.4588 0.993171H53.3183L53.3124 3.17815ZM59.7255 3.17815L59.5591 2.78088H58.6243L58.4619 3.17815H57.8162L58.7867 0.993171H59.4165L60.3811 3.17815H59.7255ZM58.7511 2.40347H59.4264L59.0917 1.57715L58.7511 2.40347ZM58.8817 9.02399L58.8828 9.02704C58.4094 9.09881 58.5104 8.72707 58.6399 8.25063C58.7669 7.78362 58.9211 7.216 58.5886 6.86682L58.7867 5.5757H56.8933L56.7962 9.15111L56.7011 8.81741C56.5951 8.81741 56.5878 8.82602 56.5357 8.88713C56.5265 8.89792 56.5159 8.91036 56.5031 8.92467L56.3941 8.70816L56.5031 8.60487C56.5031 8.1639 56.0654 6.71387 55.7109 6.53311C55.8041 6.10346 55.5956 5.99683 55.391 5.89214C55.2522 5.82114 55.1151 5.75103 55.0751 5.58166H50.7951L50.7792 15.9106H55.691C55.8713 15.6365 55.7822 14.979 55.7109 15.0148C55.3147 15.2114 55.1266 14.7705 55.9089 14.5857C56.0265 14.5581 56.0278 14.22 56.0294 13.8238C56.0322 13.1387 56.0356 12.2799 56.6417 12.5517C56.7784 12.1644 56.8893 11.9717 56.8893 12.3054L56.9071 15.9106H58.3331C58.6166 15.6095 58.509 15.2976 58.4171 15.0309C58.3246 14.7628 58.248 14.5404 58.6005 14.4209C58.5807 14.2381 58.5074 11.5943 58.963 11.9816L60.8108 15.9106H62.5339C62.5562 15.8752 62.5741 15.7281 62.5928 15.5748C62.614 15.4011 62.6361 15.2195 62.6666 15.1836C62.0077 14.5336 61.892 13.7214 61.8237 13.2415C61.7914 13.0146 61.7696 12.8619 61.706 12.8358C61.1928 12.6143 61.2202 11.4448 61.2336 10.872V10.872C61.238 10.6844 61.2409 10.5608 61.2228 10.5555C60.9078 10.4567 61.2023 9.55952 61.4069 8.93613C61.4944 8.66963 61.5654 8.45317 61.5654 8.37048C61.3 7.99308 61.6427 7.19655 62.0388 7.0297C62.1635 6.56776 62.23 6.09197 62.2368 5.61344L60.7257 5.57768L58.9649 9.27029L58.8828 9.02704L58.8897 9.02597L58.8817 9.02399ZM32.041 15.9047V5.5757H37.7015C38.5829 5.81406 39.1553 6.13982 39.1553 7.08929C39.1553 7.79202 39.1827 7.80431 39.5899 7.98637C39.6592 8.01737 39.7396 8.05328 39.8326 8.09835C39.8326 8.23037 39.7729 8.48707 39.7019 8.79248C39.5069 9.63127 39.2264 10.8375 39.8623 10.8375C39.6643 11.5029 39.3177 11.934 38.7552 11.6321C38.5689 11.5296 38.3485 11.784 38.108 12.0615C37.8168 12.3976 37.4962 12.7678 37.1707 12.5795C36.2676 12.0492 35.5407 14.1686 36.022 14.5857C36.4062 14.9175 36.3706 15.9762 35.9467 15.5213L36.0299 15.9186L32.041 15.9047ZM36.5865 8.50754C35.9586 11.7373 39.5692 9.21269 37.2777 7.87588C36.6898 7.53237 36.6632 7.80701 36.6248 8.20362V8.20364C36.6155 8.30011 36.6054 8.40378 36.5865 8.50754ZM26.0221 5.57768C26.3707 5.98488 26.4004 6.99196 26.2716 7.48259C26.0436 8.34222 26.0208 9.07357 25.9965 9.85535C25.9885 10.1123 25.9803 10.3747 25.9646 10.6488L29.3554 5.57768H31.1141C31.2389 5.7505 31.2389 6.00078 31.023 6.35633C30.6605 6.95164 30.8087 7.28474 30.95 7.60262C31.0813 7.8978 31.2068 8.17986 30.9121 8.64658C30.4892 9.31861 30.8657 11.3255 31.0381 12.2443V12.2443C31.0909 12.5258 31.1246 12.7052 31.1102 12.7126C30.5772 13.0633 30.8026 13.2234 31.0085 13.3695C31.1629 13.4791 31.3063 13.5809 31.1102 13.7495C30.9656 13.8726 30.4685 14.985 30.516 15.1062C30.858 16.0208 30.3798 15.9809 29.7473 15.928C29.5885 15.9148 29.4201 15.9007 29.2524 15.9007L29.2841 10.0569L28.476 11.489C28.3651 11.6102 27.5253 12.5378 27.5313 12.7782C27.543 13.3589 27.1264 13.8653 26.6868 14.3998C26.3099 14.858 25.9161 15.3368 25.7607 15.9007H21.9976L21.9679 5.57173L26.0221 5.57768ZM46.1467 7.96924C46.113 7.84609 46.0338 9.17495 46.1566 9.48085C46.2437 9.69537 45.505 12.0631 45.4257 12.0631C45.0118 12.1108 47.44 12.7345 47.2083 11.8645L46.1467 7.96924ZM48.05 15.9047C47.9969 15.6921 47.9696 15.5039 47.9461 15.3417C47.8654 14.7842 47.8292 14.5346 46.9409 14.6592C46.6406 14.7017 46.3555 14.7028 46.0932 14.7038C45.2881 14.7068 44.6978 14.7091 44.5424 15.9047H40.9279V5.5757C41.0612 5.5757 41.3678 5.57073 41.7756 5.56413H41.7756C43.4147 5.53759 46.6876 5.48459 46.9033 5.62138C47.1402 5.80475 47.3904 5.97008 47.6519 6.11598H47.6658L47.6603 6.21937C47.6302 6.77463 47.5958 7.40856 47.9648 7.74876C48.0208 7.79942 48.1441 8.3639 48.2775 8.97471L48.2775 8.97484C48.437 9.70511 48.611 10.5016 48.7016 10.5654C48.9817 10.7633 48.9082 10.8425 48.8113 10.9468C48.7089 11.0572 48.5803 11.1958 48.8165 11.5327C49.0372 11.8463 48.9777 12.1312 48.9219 12.3984C48.8456 12.7641 48.7762 13.0966 49.4423 13.4237C49.8344 13.615 49.8047 14.0879 49.7773 14.5225C49.7538 14.8957 49.7321 15.2407 49.9811 15.3545C50.0138 15.5344 50.0356 15.7161 50.0464 15.8987L48.05 15.9047Z" fill="#E3000B"/>
</g>
<defs>
<clipPath id="clip0">
<rect width="62.6667" height="16" fill="white"/>
</clipPath>
</defs>
</svg>
